<?xml version="1.0" encoding="utf-8"?>
<svg version="1.1" xmlns:xlink="http://www.w3.org/1999/xlink" width="30px" height="30px" xmlns="http://www.w3.org/2000/svg">
  <g transform="matrix(1 0 0 1 -73 -97 )">
    <path d="M 30 17.8125  C 30 17.25  29.625 16.875  29.0625 16.875  L 28 16.875  L 28 0.9375  C 28.125 0.375  27.75 0  27.1875 0  L 8.4375 0  C 7.875 0  7.5 0.375  7.5 0.9375  L 7.5 3.75  L 2.8125 3.75  C 2.25 3.75  1.875 4.125  2 4.6875  L 2 16.875  L 0.9375 16.875  C 0.375 16.875  0 17.25  0 17.8125  L 0 29.0625  C 0 29.625  0.375 30  0.9375 30  L 29.0625 30  C 29.625 30  30 29.625  30 29.0625  L 30 17.8125  Z M 9.375 2  L 26 2  L 26 16.875  L 19.125 16.875  C 18.75 16.875  18.375 17.25  18.375 17.8125  L 18.375 20.625  L 11.8125 20.625  L 11.8125 17.8125  C 11.8125 17.25  11.25 16.875  10.875 16.875  L 9.375 16.875  L 9.375 2  Z M 4 16.875  L 4 5.625  L 8 5.625  L 8 16.875  L 4 16.875  Z M 28.125 18.75  L 28.125 28  L 1.875 28  L 1.875 18.75  L 9.9375 18.75  L 9.9375 21.5625  C 9.9375 22.125  10.3125 22.5  10.875 22.5  L 19.3125 22.5  C 19.875 22.5  20.25 22.125  20.25 21.5625  L 20.25 18.75  L 28.125 18.75  Z " fill-rule="nonzero" fill="#0099ff" stroke="none" transform="matrix(1 0 0 1 73 97 )" />
  </g>
</svg>