<?xml version="1.0" encoding="utf-8"?>
<svg version="1.1" xmlns:xlink="http://www.w3.org/1999/xlink" width="13px" height="8px" xmlns="http://www.w3.org/2000/svg">
  <g transform="matrix(1 0 0 1 -84 -103 )">
    <path d="M 0 1  C 0 1.60000000000001  0.371428571428567 2  0.928571428571431 2  L 12.0714285714286 2  C 12.6285714285714 2  13 1.60000000000001  13 1  C 13 0.399999999999991  12.6285714285714 0  12.0714285714286 0  L 0.928571428571431 0  C 0.371428571428567 0  0 0.399999999999991  0 1  Z M 0 7  C 0 7.60000000000001  0.371428571428567 8  0.928571428571431 8  L 12.0714285714286 8  C 12.6285714285714 8  13 7.60000000000001  13 7  C 13 6.39999999999999  12.6285714285714 6  12.0714285714286 6  L 0.928571428571431 6  C 0.371428571428567 6  0 6.39999999999999  0 7  Z " fill-rule="nonzero" fill="#ff9900" stroke="none" transform="matrix(1 0 0 1 84 103 )" />
  </g>
</svg>