<?xml version="1.0" encoding="utf-8"?>
<svg version="1.1" xmlns:xlink="http://www.w3.org/1999/xlink" width="30px" height="30px" xmlns="http://www.w3.org/2000/svg">
  <g transform="matrix(1 0 0 1 -207 -97 )">
    <path d="M 19.8247958167764 1.00570469798657  C 19.8002975587505 0.46342281879194  19.3834915797337 0  18.8203672377126 0  L 3.01697725552393 0  C 2.1951110376398 0.00771812080536449  1.36284144990907 0.34395973154362  0.808106922280501 0.961409395973149  C 0.294438103697956 1.52475785281237  0.00669451830171397 2.25781043314926  0 3.02013422818793  L 0 26.6140939597315  C 0 27.0402684563758  0 27.465100671141  0.134237030279166 27.8775167785235  C 0.554734527628597 29.1597315436242  1.72964413514686 29.9953020134228  3.07469917854394 30  L 24.8210980837664 30  C 25.5399373809113 29.9973154362416  26.2591122706318 30.003355704698  26.9779515677766 29.9973154362416  C 27.7404277368593 29.9904370133611  28.4736385104426 29.7028824948789  29.0374832048345 29.1895973154362  C 29.6549735441186 28.6348993288591  29.9909017123922 27.8036912751678  29.9989559342089 26.9818791946309  C 30.0013050822388 26.7177852348993  29.9989559342089 26.453355704698  30 26.1889261744967  L 30 10.2187919463087  C 29.9989559342089 9.69328859060403  29.5368449574729 9.19026845637583  28.9941917625695 9.21442953020136  C 28.4515385676661 9.23859060402685  27.9897631835057 9.65570469798656  28 10.2187919463087  L 28 25.0302013422819  C 27.9897631835057 25.6771812080537  27.9951326647169 26.3244966442953  27.9897631835057 26.9714765100671  C 27.9892066860795 27.0680717004741  27.9829313119698 27.1645492218984  27.9709699992667 27.2604026845638  L 28.0068784048664 26.9919463087248  C 27.9805923932485 27.1690184757216  27.932459487388 27.3421502635429  27.8635803750434 27.5073825503356  L 27.9642581477527 27.2674496644295  C 27.9174269279374 27.3745591441815  27.8619842224083 27.477693739566  27.7984754153579 27.5758389261745  C 27.7823669717245 27.6003355704698  27.7649161577882 27.6234899328859  27.7488077141547 27.6476510067114  C 27.6726281994713 27.7624161073825  27.8233092659596 27.5436241610738  27.8263295991409 27.5469798657718  C 27.8293499323222 27.5503355704698  27.701824753557 27.6845637583893  27.6947773094673 27.691610738255  C 27.6541706078078 27.7325503355705  27.6068520546345 27.7677852348993  27.5669165381264 27.8090604026846  C 27.4924149863215 27.8859060402685  27.7578687136985 27.6748322147651  27.6675943108357 27.7328859060403  C 27.6430960528098 27.748322147651  27.6202757576624 27.7664429530201  27.5964486847878 27.7828859060403  C 27.4930226397526 27.8516158762705  27.3837588690837 27.9111287065524  27.2699171086338 27.9607382550336  L 27.5098658002578 27.860067114094  C 27.344519391388 27.9290506194017  27.1712655377746 27.9772924963174  26.9940600114101 28.0036912751678  L 27.2625340719684 27.9677852348993  C 26.9796295306551 28.003355704698  26.6856504343438 27.986577181208  26.401067930152 28  L 3.03879077294428 28  C 2.9378262034904 27.9864072580157  2.83696431535853 27.9801318205967  2.7367574548162 27.9677852348993  L 3.0052315153745 28.0036912751678  C 2.82813447696887 27.9772924775738  2.65499166050495 27.929050131187  2.48976131910254 27.860067114094  L 2.72971001072654 27.9607382550336  C 2.62246451663256 27.9141756675149  2.51930172441502 27.8587251099548  2.42130043366021 27.794966442953  C 2.39680217563424 27.7791946308725  2.3736462879111 27.7614093959731  2.34914802988516 27.7456375838926  C 2.23471096157218 27.6694630872483  2.45351732092718 27.8197986577181  2.44982580259452 27.8231543624161  C 2.44613428426183 27.8265100671141  2.31223284655837 27.6986577181208  2.30518540246871 27.691610738255  C 2.26424310823359 27.6506711409396  2.22900588778529 27.6036912751678  2.18772800097449 27.5634228187919  C 2.11087730113965 27.4889261744966  2.3219650312536 27.7546979865772  2.26390751565788 27.6640939597315  C 2.24847025717577 27.6395973154362  2.23034825808807 27.6167785234899  2.21390422187889 27.5926174496644  C 2.14510103025992 27.4892396558831  2.08558089948332 27.3799768776968  2.03604015675901 27.2661073825503  L 2.13671792946838 27.5060402684564  C 2.06798158457639 27.3407586315083  2.01985366676129 27.1676447854506  1.99341989964537 26.9906040268456  L 2.02932830524506 27.2590604026846  C 1.99375549222108 26.9761744966443  2.01053512100597 26.6825503355705  2 26.3979865771812  L 2 3.92617449664429  L 2.01053512100597 3.03825503355705  C 2.01070177764123 2.93729701016102  2.01697764077281 2.83644156802913  2.02932830524506 2.73624161073825  L 1.99341989964537 3.00469798657717  C 2.01990662579919 2.82755998917644  2.06803230334557 2.6543415021788  2.13671792946838 2.48892617449665  L 2.03604015675901 2.72885906040268  C 2.08267862422574 2.62165594501809  2.13812964586356 2.51850587999692  2.20182288915376 2.42046979865772  C 2.21759574021158 2.39630872483221  2.23538214672354 2.37281879194632  2.25115499778136 2.3486577181208  C 2.32733451246477 2.23422818791946  2.17698903855211 2.4530201342282  2.17363311279513 2.44932885906042  C 2.17027718703815 2.44563758389262  2.29813795837907 2.31174496644296  2.30518540246871 2.30469798657718  C 2.34612769670386 2.26375838926175  2.39311065730155 2.22852348993288  2.43338176638531 2.18724832214765  C 2.50788331819027 2.11040268456377  2.24209399823749 2.32147651006711  2.33270399367592 2.26342281879195  C 2.35720225170189 2.24798657718121  2.38002254684935 2.22986577181209  2.40418521229958 2.21342281879195  C 2.50756981615305 2.14462415932454  2.61683979208817 2.0851079492128  2.73071678845361 2.03557046979866  L 2.49076809682961 2.13624161073825  C 2.65606062180134 2.06750979359454  2.82918587183403 2.01938504602511  3.0062382931016 1.99295302013424  L 2.7377642325433 2.02885906040268  C 2.94918755523295 2.00234899328859  3.16430239625529 2.01006711409396  3.37706808924776 2  L 16.838357485641 2  C 17.4897426750706 2.01006711409396  18.1424702348029 2.02315436241611  18.7935198316568 2.01006711409396  L 18.8203672377126 2.01006711409396  C 19.3459052112555 2.01006711409396  19.8492940748023 1.54798657718121  19.8247958167764 1.00570469798657  Z " fill-rule="nonzero" fill="#999999" stroke="none" transform="matrix(1 0 0 1 207 97 )" />
  </g>
</svg>