<?xml version="1.0" encoding="utf-8"?>
<svg version="1.1" xmlns:xlink="http://www.w3.org/1999/xlink" width="23px" height="23px" xmlns="http://www.w3.org/2000/svg">
  <g transform="matrix(1 0 0 1 -214 -97 )">
    <path d="M 22.9998171123067 4.28775902541538  C 23.0064093134668 3.69984042235582  22.8346651253501 3.07076751708209  22.5047081093928 2.58210340759787  C 22.3229021405582 2.31339002255243  22.1091760397909 2.08583093972112  21.8819185787477 1.85930936030699  C 21.5203883888134 1.49894984007872  21.1741243489338 1.10366103813926  20.7813679429783 0.776155792787861  C 20.2614293222747 0.337223704123744  19.6175201455218 0.0701494541029746  18.9386742397716 0.0118616088104346  C 18.3464170092363 -0.0458927480783728  17.7243213945028 0.111461936858163  17.2063131665066 0.3922795284372  C 16.7476347489508 0.640934514084151  16.3930437181323 1.03449414366168  16.0266561168168 1.39796617414144  L 14.5024698170265 2.91721701134183  L 12.2472431043843 5.16514108186368  L 9.61105655628339 7.79521224437426  L 6.89368184652733 10.5037878321169  C 6.07879326102594 11.3164988422287  5.26367337022072 12.1289792960255  4.44832217411161 12.9412291935074  L 2.58168837195538 14.8021644894271  L 1.63657490038037 15.7438717577395  C 1.46260100431522 15.916787752161  1.34072131835089 16.1348378019837  1.28475953320819 16.3732904974857  L 1.0071931685753 17.5491277036048  C 0.735640741842786 18.7019092782314  0.463857009806418 19.8537686275983  0.191841972466165 21.0047057517055  C 0.138179141970483 21.2331870597964  0.0842850061709157 21.4616683678874  0.030159565067521 21.6901496759784  C -0.152687277634413 22.4648188941275  0.523533778202477 23.1634045283512  1.31043442193672 22.9662788790901  L 6.01830692406637 21.7869833282471  L 6.69105840034533 21.6182161057217  C 6.79550672567842 21.5914333716522  6.89447963811989 21.5467296614284  6.98354395707725 21.4861073372695  C 7.04369236035629 21.44715416918  7.09951890228791 21.4019419808991  7.15008377585698 21.3512318930382  L 7.76662806329779 20.7363382011324  L 9.39143217026759 19.1167953669395  L 11.7091113149522 16.8066210913878  L 14.372013625649 14.1523415158101  L 17.0758569751292 11.4572534724906  C 17.876867242399 10.6583758412743  18.6781088149726 9.85972876637302  19.47958169285 9.06131224778665  L 21.24698551965 7.30066894885945  C 21.5196944729018 7.0288430535625  21.793444300021 6.75770882721032  22.0654593373612 6.4848454284962  C 22.6516429010891 5.90142126661578  22.98678594105 5.11335246050095  22.9998171123067 4.28775902541538  Z M 19.361615987881 2.28330242345466  C 19.3914463306511 2.29869119423095  19.4183380905136 2.31917512132812  19.4410693597572 2.34382345612256  L 19.361615987881 2.28330242345466  Z M 18.0712793502939 2.29333162315392  C 18.0903328645479 2.27171333576041  18.1140589572501 2.25468586472981  18.1406709414521 2.24353145913005  L 18.0712793502939 2.29333162315392  Z M 17.9855807352135 2.38255691703  L 17.9873155249924 2.38186524808525  C 18.0039695068704 2.36526519341061  18.0265217739968 2.33898177350913  18.0508088309022 2.31269835360764  C 18.0917498696855 2.28606909923377  18.1316500346016 2.25771067249795  18.1736319472523 2.23246475601364  C 18.215613859903 2.2072188395293  18.2666166794043 2.17920624726588  18.3144968773035 2.15534366867111  C 18.4038558780856 2.12476715267141  18.4950542205842 2.09981790842112  18.5875527885111 2.08064342263532  C 18.6799907919329 2.07508196026387  18.7726811497222 2.07508196026387  18.865119153144 2.08064342263532  C 18.9569206638668 2.09958664028571  19.0474265065436 2.12430563396795  19.1360933166168 2.15465199972634  C 19.1919535474992 2.18266459198976  19.2464259465584 2.21240635661512  19.2998574717502 2.24526063149199  C 19.3133888320261 2.25390649330168  19.3293488979925 2.26255235511138  19.3463498378262 2.27223572033824  C 19.36335077766 2.28191908556512  19.3748003902012 2.29609829893302  19.388331750477 2.30854833993898  C 19.4355180324646 2.35108598004271  19.4799286508058 2.39604446145313  19.5246862271029 2.44100294286359  L 20.0392248755411 2.95352963094257  L 20.5450895750845 3.4619063053529  C 20.5912349832048 3.5079022901805  20.6377273492807 3.55355244053571  20.6817910096663 3.60024009430808  L 20.6495239197777 3.54767325450511  C 20.6661779016557 3.57499417782375  20.6842197153568 3.60093176325285  20.7046902347485 3.62721518315435  C 20.7153234091664 3.64094443894865  20.7251695863819 3.65526176245912  20.7341816609907 3.67009865773046  C 20.7720944200339 3.72980000840589  20.8068379873276 3.79144330279564  20.838269047728 3.85477426598564  C 20.8684415532719 3.94297451713513  20.893122511604 4.03294733114106  20.9121710923116 4.12417931997587  C 20.9177363453013 4.21631842873219  20.9177363453013 4.30870778912993  20.9121710923116 4.40084689788625  C 20.8928919805919 4.49292234392891  20.8678622844112 4.58370770049083  20.8372281738607 4.6726727931832  C 20.8132880749111 4.72039795037274  20.7879601441383 4.76743143861751  20.7598565497193 4.81308158897272  C 20.7477130212665 4.83313998837122  20.7348755769023 4.85250671882496  20.722038132538 4.87221928375106  L 20.7497947690013 4.84593586384959  C 20.7390390723718 4.85596506354884  20.728630333698 4.86668593219287  20.7182215950243 4.87775263530926  L 20.6783214301083 4.93689033008761  C 20.6533404572914 4.97527795652269  20.6262777367396 4.99153217672493  20.6318290640323 4.97562379099507  C 20.6245429469607 4.98357798386  20.6172568298891 4.99187801119731  20.6096237548616 4.99983220406223  L 20.5627844308299 5.04651985783461  L 20.3199138617761 5.2886039885062  L 20.154067958908 5.45425870078003  C 19.2797339103143 4.5797585982683  18.4052842090688 3.70537377391403  17.5307188551714 2.83110422771722  C 17.6829177451117 2.68078151038591  17.8345383717924 2.53126574015685  17.9855807352135 2.38255691703  Z M 2.43804777825787 20.546129241319  C 2.64876691007498 19.6527235209834  2.85925473658827 18.7600094695925  3.06951125779767 17.8679870871465  L 5.08186740138618 19.8817812198617  L 2.43804777825787 20.546129241319  Z M 18.6826192683978 6.92025102923267  L 15.7681724397525 9.8280272730708  L 11.3965021967844 14.1855416251593  L 7.56851507054105 17.9994041866539  C 7.3302706075645 18.236877191027  7.09086961806864 18.4736585264553  6.85031210205347 18.7097481929388  L 4.30953899179511 16.1689023243044  L 4.23216736765369 16.0914354024895  L 4.59265668372066 15.7321133856783  L 8.24820570593587 12.0884013845986  L 12.6268151080197 7.72397034306233  L 16.0616988703518 4.30020906642135  L 18.6826192683978 6.92025102923267  Z " fill-rule="nonzero" fill="#999999" stroke="none" transform="matrix(1 0 0 1 214 97 )" />
  </g>
</svg>