<?xml version="1.0" encoding="utf-8"?>
<svg version="1.1" xmlns:xlink="http://www.w3.org/1999/xlink" width="20px" height="13px" xmlns="http://www.w3.org/2000/svg">
  <g transform="matrix(1 0 0 1 -1655 -83 )">
    <path d="M 15.15625 11.755859375  C 15.3084935897436 11.6486545138889  15.3846153846152 11.5217013888889  15.3846153846152 11.375  C 15.3846153846152 11.2282986111111  15.3084935897436 11.1013454861111  15.15625 10.994140625  C 15.0040064102564 10.8869357638889  14.823717948718 10.8333333333333  14.6153846153848 10.8333333333333  C 14.407051282051 10.8333333333333  14.2267628205127 10.8869357638889  14.0745192307693 10.994140625  C 13.9222756410256 11.1013454861111  13.8461538461538 11.2282986111111  13.8461538461538 11.375  C 13.8461538461538 11.5217013888889  13.9222756410256 11.6486545138889  14.0745192307693 11.755859375  C 14.2267628205127 11.8630642361111  14.407051282051 11.9166666666667  14.6153846153848 11.9166666666667  C 14.823717948718 11.9166666666667  15.0040064102564 11.8630642361111  15.15625 11.755859375  Z M 18.2331730769231 11.755859375  C 18.3854166666667 11.6486545138889  18.4615384615383 11.5217013888889  18.4615384615383 11.375  C 18.4615384615383 11.2282986111111  18.3854166666667 11.1013454861111  18.2331730769231 10.994140625  C 18.0809294871794 10.8869357638889  17.9006410256411 10.8333333333333  17.6923076923078 10.8333333333333  C 17.4839743589744 10.8333333333333  17.3036858974358 10.8869357638889  17.1514423076922 10.994140625  C 16.999198717949 11.1013454861111  16.9230769230769 11.2282986111111  16.9230769230769 11.375  C 16.9230769230769 11.5217013888889  16.999198717949 11.6486545138889  17.1514423076922 11.755859375  C 17.3036858974358 11.8630642361111  17.4839743589744 11.9166666666667  17.6923076923078 11.9166666666667  C 17.9006410256411 11.9166666666667  18.0809294871794 11.8630642361111  18.2331730769231 11.755859375  Z M 19.6634615384617 8.90364583333334  C 19.8878205128206 9.06163194444446  20 9.25347222222223  20 9.47916666666666  L 20 12.1875  C 20 12.4131944444445  19.8878205128206 12.6050347222222  19.6634615384617 12.7630208333333  C 19.4391025641025 12.9210069444445  19.1666666666667 13  18.8461538461538 13  L 1.15384615384619 13  C 0.833333333333258 13  0.560897435897459 12.9210069444445  0.336538461538339 12.7630208333333  C 0.112179487179446 12.6050347222222  0 12.4131944444445  0 12.1875  L 0 9.47916666666666  C 0 9.25347222222223  0.112179487179446 9.06163194444446  0.336538461538339 8.90364583333334  C 0.560897435897459 8.74565972222223  0.833333333333258 8.66666666666666  1.15384615384619 8.66666666666666  L 6.74278846153834 8.66666666666666  L 8.36538461538476 9.81770833333334  C 8.8301282051284 10.1336805555555  9.375 10.2916666666667  10 10.2916666666667  C 10.625 10.2916666666667  11.1698717948716 10.1336805555555  11.6346153846152 9.81770833333334  L 13.2692307692307 8.66666666666666  L 18.8461538461538 8.66666666666666  C 19.1666666666667 8.66666666666666  19.4391025641025 8.74565972222223  19.6634615384617 8.90364583333334  Z M 15.3846153846152 4.33333333333334  C 15.7211538461538 4.33333333333334  15.957532051282 4.443359375  16.09375 4.66341145833334  C 16.229967948718 4.89474826388889  16.1738782051284 5.09223090277777  15.9254807692307 5.255859375  L 10.5408653846152 9.04752604166666  C 10.3966346153848 9.15473090277777  10.2163461538462 9.20833333333334  10 9.20833333333334  C 9.78365384615381 9.20833333333334  9.60336538461524 9.15473090277777  9.45913461538476 9.04752604166666  L 4.07451923076928 5.255859375  C 3.8261217948716 5.09223090277777  3.77003205128199 4.89474826388889  3.90625 4.66341145833334  C 4.04246794871801 4.443359375  4.27884615384619 4.33333333333334  4.61538461538476 4.33333333333334  L 7.69230769230785 4.33333333333334  L 7.69230769230785 0.541666666666657  C 7.69230769230785 0.394965277777771  7.76842948717945 0.268012152777771  7.92067307692309 0.160807291666657  C 8.07291666666674 0.0536024305555429  8.25320512820531 0  8.46153846153834 0  L 11.5384615384617 0  C 11.7467948717947 0  11.9270833333333 0.0536024305555429  12.0793269230769 0.160807291666657  C 12.2315705128206 0.268012152777771  12.3076923076922 0.394965277777771  12.3076923076922 0.541666666666657  L 12.3076923076922 4.33333333333334  L 15.3846153846152 4.33333333333334  Z " fill-rule="nonzero" fill="#333333" stroke="none" transform="matrix(1 0 0 1 1655 83 )" />
  </g>
</svg>