<?xml version="1.0" encoding="utf-8"?>
<svg version="1.1" xmlns:xlink="http://www.w3.org/1999/xlink" width="17px" height="17px" xmlns="http://www.w3.org/2000/svg">
  <g transform="matrix(1 0 0 1 -353 -6439 )">
    <path d="M 17 8.5  C 17 13.1940298384725  13.1940298384725 17  8.49999999999977 17  C 3.80597016152728 17  0 13.1940298384725  0 8.5  C 0 3.80597016152751  3.80597016152728 0  8.49999999999977 0  C 13.1940298384725 0  17 3.80597016152751  17 8.5  Z M 14.4626865809107 8.43656716123405  C 14.4626865809107 5.13805967694498  11.7985074842879 2.47388058032266  8.49999999999977 2.47388058032266  C 5.20149254860507 2.47388058032266  2.53731341908929 5.13805967694498  2.53731341908929 8.43656716123405  C 2.53731341908929 11.7350746455213  5.20149251571183 14.3992537421436  8.49999999999977 14.3992537421436  C 11.7985074842879 14.3992537421436  14.4626865809107 11.7350746455213  14.4626865809107 8.43656716123405  Z " fill-rule="nonzero" fill="#4282c4" stroke="none" transform="matrix(1 0 0 1 353 6439 )" />
  </g>
</svg>