<?xml version="1.0" encoding="utf-8"?>
<svg version="1.1" xmlns:xlink="http://www.w3.org/1999/xlink" width="22px" height="17px" xmlns="http://www.w3.org/2000/svg">
  <g transform="matrix(1 0 0 1 -346 -6452 )">
    <path d="M 2.51643758411319 15.757692284611  C 2.51643758411319 16.4115384345441  1.95023913829004 16.9999999660959  1.25821877574504 17  C 0.566198445823147 17  0 16.4115384684501  0 15.6923076662279  C 0 7.06153844641267  6.79438141512173 0  15.0986254068098 0  C 16.482666066654 0  19.8169458321652 0.719230768318084  21.0751646405333 1.30769229986799  C 21.7042740284057 1.63461539178752  22.1446505901297 2.22307692333743  21.9559177639812 2.94230769165551  C 21.7671849378326 3.6615384599736  21.012253665861 4.18461537314033  20.3831443106112 3.85769228122081  C 19.3136583610146 3.33461536805407  16.2310223310785 2.68076921812099  15.0986254068098 2.68076921812099  C 8.17842210758863 2.68076921812099  2.51643758411319 8.56538460143202  2.51643758411319 15.757692284611  Z " fill-rule="nonzero" fill="#4282c4" stroke="none" transform="matrix(1 0 0 1 346 6452 )" />
  </g>
</svg>