<?xml version="1.0" encoding="utf-8"?>
<svg version="1.1" xmlns:xlink="http://www.w3.org/1999/xlink" width="287px" height="71px" xmlns="http://www.w3.org/2000/svg">
  <g transform="matrix(1 0 0 1 -412 -6624 )">
    <path d="M 698.5 6638.2  C 698.5 6638.2  698.5 6680.8  698.5 6680.8  C 698.5 6688.72429268293  633.030422535211 6694.5  555.5 6694.5  C 477.969577464789 6694.5  412.5 6688.72429268293  412.5 6680.8  C 412.5 6680.8  412.5 6638.2  412.5 6638.2  C 412.5 6630.27570731707  477.969577464789 6624.5  555.5 6624.5  C 633.030422535211 6624.5  698.5 6630.27570731707  698.5 6638.2  Z " fill-rule="nonzero" fill="#0099ff" stroke="none" />
    <path d="M 412.5 6638.5  C 412.5 6630.66  475.42 6624.5  555.5 6624.5  C 635.58 6624.5  698.5 6630.66  698.5 6638.5  C 698.5 6638.5  698.5 6680.5  698.5 6680.5  C 698.5 6688.34  635.58 6694.5  555.5 6694.5  C 475.42 6694.5  412.5 6688.34  412.5 6680.5  C 412.5 6680.5  412.5 6638.5  412.5 6638.5  Z " stroke-width="1" stroke="#797979" fill="none" />
    <path d="M 698.5 6638.2  C 698.5 6645.872  635.58 6651.9  555.5 6651.9  C 475.42 6651.9  412.5 6645.872  412.5 6638.2  " stroke-width="1" stroke="#797979" fill="none" />
  </g>
</svg>