<?xml version="1.0" encoding="utf-8"?>
<svg version="1.1" xmlns:xlink="http://www.w3.org/1999/xlink" width="11px" height="6px" xmlns="http://www.w3.org/2000/svg">
  <g transform="matrix(1 0 0 1 -509 -73 )">
    <path d="M 10.7958984375 0.197916666666667  C 10.9319661458333 0.32986111111111  11 0.48611111111111  11 0.666666666666667  C 11 0.847222222222222  10.9319661458333 1.00347222222222  10.7958984375 1.13541666666667  L 5.9833984375 5.80208333333333  C 5.84733072916667 5.93402777777778  5.68619791666667 6  5.5 6  C 5.31380208333333 6  5.15266927083333 5.93402777777778  5.0166015625 5.80208333333333  L 0.2041015625 1.13541666666667  C 0.0680338541666667 1.00347222222222  0 0.847222222222222  0 0.666666666666667  C 0 0.48611111111111  0.0680338541666667 0.32986111111111  0.2041015625 0.197916666666667  C 0.340169270833333 0.0659722222222214  0.501302083333333 0  0.6875 0  L 10.3125 0  C 10.4986979166667 0  10.6598307291667 0.0659722222222214  10.7958984375 0.197916666666667  Z " fill-rule="nonzero" fill="#eee6e6" stroke="none" transform="matrix(1 0 0 1 509 73 )" />
  </g>
</svg>