<?xml version="1.0" encoding="utf-8"?>
<svg version="1.1" xmlns:xlink="http://www.w3.org/1999/xlink" width="10px" height="7px" xmlns="http://www.w3.org/2000/svg">
  <g transform="matrix(1 0 0 1 -1207 -108 )">
    <path d="M 7.578125 6.330078125  C 7.6542467948718 6.27235243055556  7.69230769230769 6.20399305555556  7.69230769230769 6.125  C 7.69230769230769 6.04600694444444  7.6542467948718 5.97764756944444  7.578125 5.919921875  C 7.50200320512821 5.86219618055556  7.41185897435898 5.83333333333333  7.30769230769231 5.83333333333333  C 7.20352564102564 5.83333333333333  7.11338141025641 5.86219618055556  7.03725961538462 5.919921875  C 6.96113782051282 5.97764756944444  6.92307692307692 6.04600694444444  6.92307692307692 6.125  C 6.92307692307692 6.20399305555556  6.96113782051282 6.27235243055556  7.03725961538462 6.330078125  C 7.11338141025641 6.38780381944444  7.20352564102564 6.41666666666667  7.30769230769231 6.41666666666667  C 7.41185897435898 6.41666666666667  7.50200320512821 6.38780381944444  7.578125 6.330078125  Z M 9.11658653846154 6.330078125  C 9.19270833333333 6.27235243055556  9.23076923076923 6.20399305555556  9.23076923076923 6.125  C 9.23076923076923 6.04600694444444  9.19270833333333 5.97764756944444  9.11658653846154 5.919921875  C 9.04046474358974 5.86219618055556  8.95032051282051 5.83333333333333  8.84615384615385 5.83333333333333  C 8.74198717948718 5.83333333333333  8.65184294871795 5.86219618055556  8.57572115384615 5.919921875  C 8.49959935897436 5.97764756944444  8.46153846153846 6.04600694444444  8.46153846153846 6.125  C 8.46153846153846 6.20399305555556  8.49959935897436 6.27235243055556  8.57572115384615 6.330078125  C 8.65184294871795 6.38780381944444  8.74198717948718 6.41666666666667  8.84615384615385 6.41666666666667  C 8.95032051282051 6.41666666666667  9.04046474358974 6.38780381944444  9.11658653846154 6.330078125  Z M 9.83173076923077 4.79427083333333  C 9.94391025641026 4.87934027777778  10 4.98263888888889  10 5.10416666666667  L 10 6.5625  C 10 6.68402777777778  9.94391025641026 6.78732638888889  9.83173076923077 6.87239583333333  C 9.71955128205128 6.95746527777778  9.58333333333334 7  9.42307692307692 7  L 0.576923076923077 7  C 0.416666666666667 7  0.280448717948718 6.95746527777778  0.168269230769231 6.87239583333333  C 0.0560897435897436 6.78732638888889  0 6.68402777777778  0 6.5625  L 0 5.10416666666667  C 0 4.98263888888889  0.0560897435897436 4.87934027777778  0.168269230769231 4.79427083333333  C 0.280448717948718 4.70920138888889  0.416666666666667 4.66666666666667  0.576923076923077 4.66666666666667  L 3.37139423076923 4.66666666666667  L 4.18269230769231 5.28645833333333  C 4.4150641025641 5.45659722222222  4.6875 5.54166666666667  5 5.54166666666667  C 5.3125 5.54166666666667  5.5849358974359 5.45659722222222  5.81730769230769 5.28645833333333  L 6.63461538461538 4.66666666666667  L 9.42307692307692 4.66666666666667  C 9.58333333333334 4.66666666666667  9.71955128205128 4.70920138888889  9.83173076923077 4.79427083333333  Z M 7.69230769230769 2.33333333333333  C 7.86057692307692 2.33333333333333  7.97876602564103 2.392578125  8.046875 2.51106770833333  C 8.11498397435898 2.63563368055556  8.0869391025641 2.74197048611111  7.96274038461538 2.830078125  L 5.27043269230769 4.87174479166667  C 5.19831730769231 4.92947048611111  5.10817307692308 4.95833333333333  5 4.95833333333333  C 4.89182692307692 4.95833333333333  4.80168269230769 4.92947048611111  4.72956730769231 4.87174479166667  L 2.03725961538462 2.830078125  C 1.9130608974359 2.74197048611111  1.88501602564103 2.63563368055556  1.953125 2.51106770833333  C 2.02123397435897 2.392578125  2.13942307692308 2.33333333333333  2.30769230769231 2.33333333333333  L 3.84615384615385 2.33333333333333  L 3.84615384615385 0.291666666666666  C 3.84615384615385 0.21267361111111  3.88421474358974 0.14431423611111  3.96033653846154 0.0865885416666664  C 4.03645833333333 0.0288628472222227  4.12660256410256 0  4.23076923076923 0  L 5.76923076923077 0  C 5.87339743589744 0  5.96354166666667 0.0288628472222227  6.03966346153846 0.0865885416666664  C 6.11578525641026 0.14431423611111  6.15384615384615 0.21267361111111  6.15384615384615 0.291666666666666  L 6.15384615384615 2.33333333333333  L 7.69230769230769 2.33333333333333  Z " fill-rule="nonzero" fill="#ffffff" stroke="none" transform="matrix(1 0 0 1 1207 108 )" />
  </g>
</svg>