<?xml version="1.0" encoding="utf-8"?>
<svg version="1.1" xmlns:xlink="http://www.w3.org/1999/xlink" width="22px" height="22px" xmlns="http://www.w3.org/2000/svg">
  <g transform="matrix(1 0 0 1 -312 -300 )">
    <path d="M 21.5625 8.4375  C 21.8541666666667 8.72916666666666  22 9.08333333333333  22 9.5  L 22 12.5  C 22 12.9166666666667  21.8541666666667 13.2708333333333  21.5625 13.5625  C 21.2708333333333 13.8541666666667  20.9166666666667 14  20.5 14  L 14 14  L 14 20.5  C 14 20.9166666666667  13.8541666666667 21.2708333333333  13.5625 21.5625  C 13.2708333333333 21.8541666666667  12.9166666666667 22  12.5 22  L 9.5 22  C 9.08333333333333 22  8.72916666666667 21.8541666666667  8.4375 21.5625  C 8.14583333333333 21.2708333333333  8 20.9166666666667  8 20.5  L 8 14  L 1.5 14  C 1.08333333333333 14  0.729166666666667 13.8541666666667  0.4375 13.5625  C 0.145833333333333 13.2708333333333  0 12.9166666666667  0 12.5  L 0 9.5  C 0 9.08333333333333  0.145833333333333 8.72916666666666  0.4375 8.4375  C 0.729166666666667 8.14583333333333  1.08333333333333 8  1.5 8  L 8 8  L 8 1.5  C 8 1.08333333333333  8.14583333333333 0.729166666666665  8.4375 0.4375  C 8.72916666666667 0.145833333333333  9.08333333333333 0  9.5 0  L 12.5 0  C 12.9166666666667 0  13.2708333333333 0.145833333333333  13.5625 0.4375  C 13.8541666666667 0.729166666666665  14 1.08333333333333  14 1.5  L 14 8  L 20.5 8  C 20.9166666666667 8  21.2708333333333 8.14583333333333  21.5625 8.4375  Z " fill-rule="nonzero" fill="#b5b5b5" stroke="none" transform="matrix(1 0 0 1 312 300 )" />
  </g>
</svg>