<?xml version="1.0" encoding="utf-8"?>
<svg version="1.1" xmlns:xlink="http://www.w3.org/1999/xlink" width="11px" height="7px" xmlns="http://www.w3.org/2000/svg">
  <g transform="matrix(1 0 0 1 -146 -34 )">
    <path d="M 10.7958984375 0.230902777777778  C 10.9319661458333 0.384837962962962  11 0.567129629629629  11 0.777777777777778  C 11 0.988425925925926  10.9319661458333 1.17071759259259  10.7958984375 1.32465277777778  L 5.9833984375 6.76909722222222  C 5.84733072916667 6.92303240740741  5.68619791666667 7  5.5 7  C 5.31380208333333 7  5.15266927083333 6.92303240740741  5.0166015625 6.76909722222222  L 0.2041015625 1.32465277777778  C 0.0680338541666667 1.17071759259259  0 0.988425925925926  0 0.777777777777778  C 0 0.567129629629629  0.0680338541666667 0.384837962962962  0.2041015625 0.230902777777778  C 0.340169270833333 0.0769675925925917  0.501302083333333 0  0.6875 0  L 10.3125 0  C 10.4986979166667 0  10.6598307291667 0.0769675925925917  10.7958984375 0.230902777777778  Z " fill-rule="nonzero" fill="#333333" stroke="none" transform="matrix(1 0 0 1 146 34 )" />
  </g>
</svg>